<?xml version="1.0" encoding="utf-8"?>
<!-- Generator: Adobe Illustrator 19.1.1, SVG Export Plug-In . SVG Version: 6.00 Build 0)  -->
<svg version="1.1" id="Слой_1" xmlns="http://www.w3.org/2000/svg" xmlns:xlink="http://www.w3.org/1999/xlink" x="0px" y="0px"
	 viewBox="-816 -122.1 554 692.5" style="enable-background:new -816 -122.1 554 692.5;" xml:space="preserve">
<style type="text/css">
	.st0{fill:#FFFFFF;}
	.st1{fill:#FF0000;}
</style>
<polygon class="st0" points="-796.4,519.9 -329.8,527.8 -296.9,96.9 -539.8,-108.6 "/>
<g>
	<path class="st1" d="M-469.7-122.1h-277c-38.1,0-68.9,31.2-68.9,69.3l-0.3,554c0,38.1,30.8,69.3,68.9,69.3h415.8
		c38.1,0,69.3-31.2,69.3-69.3V85.7L-469.7-122.1z M-431.1,350.4c-19.3,18.7-44.3,28-74.8,28h-77.9v27.1h115.8c2.1,0,3.9,0.7,5.3,2.1
		c1.4,1.4,2.1,3.1,2.1,5.3v29.3c0,2.1-0.7,3.9-2.1,5.3c-1.4,1.4-3.1,2.1-5.3,2.1h-115.8v44c0,2.1-0.7,3.9-2.2,5.3
		c-1.5,1.4-3.2,2.1-5.2,2.1h-38.3c-2.1,0-3.9-0.7-5.3-2.1c-1.4-1.4-2.1-3.1-2.1-5.3v-44h-51.3c-2.1,0-3.9-0.7-5.3-2.1
		c-1.4-1.4-2.1-3.1-2.1-5.3v-29.3c0-2.1,0.7-3.9,2.1-5.3c1.4-1.4,3.1-2.1,5.3-2.1h51.3v-27.1h-51.3c-2.1,0-3.9-0.7-5.3-2.1
		c-1.4-1.4-2.1-3.1-2.1-5.3v-34.2c0-2,0.7-3.7,2.1-5.2c1.4-1.5,3.1-2.2,5.3-2.2h51.3V185.4c0-2.1,0.7-3.9,2.1-5.3
		c1.4-1.4,3.1-2.1,5.3-2.1h123.6c30.6,0,55.5,9.3,74.8,28c19.3,18.7,29,42.7,29,72.2C-402.1,307.7-411.8,331.8-431.1,350.4z"/>
	<polygon class="st0" points="-504.3,120.3 -504.3,-70.1 -313.9,120.3 	"/>
	<path class="st1" d="M-501.5,226.9h-73.4v102.7h73.4c16.2,0,29.3-4.7,39.2-14.2c9.9-9.5,14.9-21.9,14.9-37.1
		c0-15.3-5-27.7-14.9-37.1C-472.3,231.6-485.3,226.9-501.5,226.9z"/>
</g>
</svg>
